{"title":"Mastering.Karate.Dachi-Geri.DVDRip.x264.AC3-Psycho","uid":6731265,"size":472900480,"categoryP":"video","categoryS":"other","magnet":"?xt=urn:btih:f0b33da0f437ffa0570dc20ddfc4f3dd790c5dfa&amp;dn=Mastering.Karate.Dachi-Geri.DVDRip.x264.AC3-Psycho&amp;tr=udp%3A%2F%2Ftracker.openbittorrent.com%3A80&amp;tr=udp%3A%2F%2Fopen.demonii.com%3A1337&amp;tr=udp%3A%2F%2Ftracker.coppersurfer.tk%3A6969&amp;tr=udp%3A%2F%2Fexodus.desync.com%3A6969","seeders":0,"leechers":0,"uploader":"Francisco1206","files":-1,"time":1318165282,"description":"Renowned karate master Hirokazu Kanazawa instructs this comprehensive nine-part series that explains and then demonstrates karate principles and techniques like stances, footwork, hand strikes, kicking, blocking, shifting, timing, and posture. The collection also includes an interview, photographs, and even a blooper reel from Kanazawa's trip to Hollywood.\n\nSource:Mastering Karate Dachi-Geri NTSC TUTORiAL DVDR-BX8\nDownloaded from : http://www.scenetime.com/\n9-Disc Set\nDATE: 2011-10\nDISCS: 1/9\nGENRE: Tutorial\nPRICE: $249.95 USD\n\nWEBSITE:\n\nGeneral\n*******\nFormat                           : Matroska\nFile size                        : 451 MiB\nDuration                         : 44mn 47s\nOverall bit rate                 : 1 408 Kbps\nWriting application              : HandBrake 0.9.5\nWriting library                  : libmkv 0.6.4.1\n\nVideo\n*****\nID                               : 1\nFormat                           : AVC\nFormat/Info                      : Advanced Video Codec\nFormat profile                   : &lt;a class=&quot;__cf_email__&quot; href=&quot;/cdn-cgi/l/email-protection&quot; data-cfemail=&quot;e6ab878f88a6aad5c8d6&quot;&gt;[email&amp;#160;protected]&lt;/a&gt;&lt;script data-cfhash='f9e31' type=&quot;text/javascript&quot;&gt;\n/* &lt;![CDATA[ */!function(){try{var t=&quot;currentScript&quot;in document?document.currentScript:function(){for(var t=document.getElementsByTagName(&quot;script&quot;),e=t.length;e--;)if(t[e].getAttribute(&quot;data-cfhash&quot;))return t[e]}();if(t&amp;&amp;t.previousSibling){var e,r,n,i,c=t.previousSibling,a=c.getAttribute(&quot;data-cfemail&quot;);if(a){for(e=&quot;&quot;,r=parseInt(a.substr(0,2),16),n=2;a.length-n;n+=2)i=parseInt(a.substr(n,2),16)^r,e+=String.fromCharCode(i);e=document.createTextNode(e),c.parentNode.replaceChild(e,c)}t.parentNode.removeChild(t);}}catch(u){}}()/* ]]&gt; */&lt;/script&gt;\nFormat settings, CABAC           : Yes\nFormat settings, ReFrames        : 4 frames\nMuxing mode                      : Container profile=&lt;a class=&quot;__cf_email__&quot; href=&quot;/cdn-cgi/l/email-protection&quot; data-cfemail=&quot;aaffc4c1c4c5ddc4ea99849a&quot;&gt;[email&amp;#160;protected]&lt;/a&gt;&lt;script data-cfhash='f9e31' type=&quot;text/javascript&quot;&gt;\n/* &lt;![CDATA[ */!function(){try{var t=&quot;currentScript&quot;in document?document.currentScript:function(){for(var t=document.getElementsByTagName(&quot;script&quot;),e=t.length;e--;)if(t[e].getAttribute(&quot;data-cfhash&quot;))return t[e]}();if(t&amp;&amp;t.previousSibling){var e,r,n,i,c=t.previousSibling,a=c.getAttribute(&quot;data-cfemail&quot;);if(a){for(e=&quot;&quot;,r=parseInt(a.substr(0,2),16),n=2;a.length-n;n+=2)i=parseInt(a.substr(n,2),16)^r,e+=String.fromCharCode(i);e=document.createTextNode(e),c.parentNode.replaceChild(e,c)}t.parentNode.removeChild(t);}}catch(u){}}()/* ]]&gt; */&lt;/script&gt;\nCodec ID                         : V_MPEG4/ISO/AVC\nDuration                         : 44mn 44s\nBit rate                         : 1 156 Kbps\nNominal bit rate                 : 1 179 Kbps\nWidth                            : 640 pixels\nHeight                           : 480 pixels\nDisplay aspect ratio             : 4:3\nFrame rate                       : 23.976 fps\nResolution                       : 8 bits\nColorimetry                      : 4:2:0\nScan type                        : Progressive\nBits/(Pixel*Frame)               : 0.157\nStream size                      : 370 MiB (82%)\nWriting library                  : x264 core 112\n\nAudio\n*****\nID                               : 2\nFormat                           : AC-3\nFormat/Info                      : Audio Coding 3\nCodec ID                         : A_AC3\nDuration                         : 44mn 47s\nBit rate mode                    : Constant\nBit rate                         : 224 Kbps\nChannel(s)                       : 2 channels\nChannel positions                : Front: L R\nSampling rate                    : 48.0 KHz\nStream size                      : 71.8 MiB (16%)","torrent":{"xt":"urn:btih:f0b33da0f437ffa0570dc20ddfc4f3dd790c5dfa","amp;dn":"Mastering.Karate.Dachi-Geri.DVDRip.x264.AC3-Psycho","amp;tr":["udp%3A%2F%2Ftracker.openbittorrent.com%3A80","udp%3A%2F%2Fopen.demonii.com%3A1337","udp%3A%2F%2Ftracker.coppersurfer.tk%3A6969","udp%3A%2F%2Fexodus.desync.com%3A6969"],"infoHash":"f0b33da0f437ffa0570dc20ddfc4f3dd790c5dfa","infoHashBuffer":{"type":"Buffer","data":[240,179,61,160,244,55,255,160,87,13,194,13,223,196,243,221,121,12,93,250]},"announce":[],"urlList":[]}}